<svg xmlns="http://www.w3.org/2000/svg" id="prefix__그룹_406" width="30.145" height="33.294" data-name="그룹 406" viewBox="0 0 30.145 33.294">
    <defs>
        <style>
            .prefix__cls-2{stroke-linecap:square;stroke-linejoin:round;fill:#fff;stroke:#6244b7}
        </style>
    </defs>
    <g id="prefix__그룹_406-2" data-name="그룹 406" transform="translate(4.842 1.129)">
        <g id="prefix__패스_902" data-name="패스 902" style="stroke-linecap:square;stroke-linejoin:round;fill:none">
            <path d="M162.3 97.56h-21.429A3.82 3.82 0 01137 93.793V71l11.26 1.325 12.111 1.168 1.932 1.73z" style="stroke:none" transform="translate(-137 -68.134)"/>
            <path d="M161.304 96.56V75.67l-1.355-1.213-11.785-1.136-.02-.003L138 72.125v21.668c0 1.526 1.288 2.767 2.871 2.767h20.433m1 1H140.87c-2.137 0-3.871-1.686-3.871-3.767V71l11.26 1.325 12.111 1.168 1.933 1.73V97.56z" style="stroke:none;fill:#6244b7" transform="translate(-137 -68.134)"/>
        </g>
        <path id="prefix__패스_903" d="M161.5 75.749h-20.127a3.673 3.673 0 01-3.859-3.451 3.673 3.673 0 013.859-3.451H161.5" class="prefix__cls-2" data-name="패스 903" transform="translate(-136.829 -68.848)"/>
        <path id="prefix__패스_904" d="M141.054 88.612v-14.5h7.807v14.5l-3.9-2.788z" data-name="패스 904" transform="translate(-135.655 -67.101)" style="fill:#6244b7"/>
        <path id="prefix__선_98" d="M0 0L20.757 0" class="prefix__cls-2" data-name="선 98" transform="translate(3.881 3.437)"/>
    </g>
    <path id="prefix__사각형_127" d="M0 0H30.145V33.294H0z" data-name="사각형 127" style="fill:none"/>
</svg>
