<svg xmlns="http://www.w3.org/2000/svg" width="51.686" height="51.686" viewBox="0 0 51.686 51.686">
    <defs>
        <style>
            .prefix__cls-2{fill:#aba0f1;stroke:#fff}
        </style>
    </defs>
    <g id="prefix__그룹_774" data-name="그룹 774" transform="translate(-31 -1756.079)">
        <g id="prefix__그룹_581" data-name="그룹 581" transform="translate(31 1756.079)">
            <path id="prefix__패스_955" d="M25.843 0A25.843 25.843 0 110 25.843 25.843 25.843 0 0125.843 0z" data-name="패스 955" style="fill:#aba0f1"/>
            <g id="prefix__그룹_571" data-name="그룹 571" transform="translate(14.781 14.781)">
                <g id="prefix__Layer_3" data-name="Layer 3">
                    <g id="prefix__그룹_570" data-name="그룹 570">
                        <g id="prefix__그룹_566" data-name="그룹 566" transform="translate(0 14.225)">
                            <path id="prefix__패스_941" d="M479.488 706.938H459.2a.483.483 0 01-.483-.483v-6.839a.482.482 0 01.483-.483h6.28a.483.483 0 01.483.483v1.366a.484.484 0 00.483.483h5.8a.484.484 0 00.483-.483v-1.366a.482.482 0 01.483-.483h6.28a.483.483 0 01.483.483v6.839a.483.483 0 01-.483.483zm-19.805-.966h19.322V700.1h-5.314v.883a1.451 1.451 0 01-1.449 1.449h-5.8a1.451 1.451 0 01-1.442-1.45v-.882h-5.314v5.873z" class="prefix__cls-2" data-name="패스 941" transform="translate(-458.717 -699.133)"/>
                        </g>
                        <g id="prefix__그룹_567" data-name="그룹 567" transform="translate(1.334 6.348)">
                            <path id="prefix__패스_942" d="M478.454 699.674a.483.483 0 01-.483-.483v-7.246h-16.907v7.246a.483.483 0 01-.966 0v-7.729a.482.482 0 01.483-.483h17.873a.483.483 0 01.483.483v7.729a.483.483 0 01-.483.483z" class="prefix__cls-2" data-name="패스 942" transform="translate(-460.098 -690.979)"/>
                        </g>
                        <g id="prefix__그룹_568" data-name="그룹 568" transform="translate(2.461 3.266)">
                            <path id="prefix__패스_943" d="M477.367 689.445h-15.62a.483.483 0 010-.966h15.62a.483.483 0 110 .966z" class="prefix__cls-2" data-name="패스 943" transform="translate(-461.264 -688.479)"/>
                        </g>
                        <g id="prefix__그룹_569" data-name="그룹 569" transform="translate(3.387)">
                            <path id="prefix__패스_944" d="M476.473 687.445h-13.767a.483.483 0 110-.966h13.767a.483.483 0 110 .966z" class="prefix__cls-2" data-name="패스 944" transform="translate(-462.223 -686.479)"/>
                        </g>
                    </g>
                </g>
            </g>
        </g>
    </g>
</svg>
